# xmcd
#
# Track frame offsets: 
#        150
#        15633
#        29928
#        44334
#        60936
#
# Disc length: 1046 seconds
#
# Revision: 0
# Processed by: cddbd v1.5.2PL0 Copyright (c) Steve Scherf et al.
# Submitted via: ExactAudioCopy v1.0b3
#
DISCID=3b041405
DTITLE=Schmidt - Above Sin City
DYEAR=2011
DGENRE=Pop
TTITLE0=Shadowman
TTITLE1=Sin City
TTITLE2=Boom Boom
TTITLE3=Under My Heart
TTITLE4=Venus In Furs (Bonus)
EXTD=
EXTT0=
EXTT1=
EXTT2=
EXTT3=
EXTT4=
PLAYORDER=
